<svg viewBox="0 0 48 48" xmlns="http://www.w3.org/2000/svg" xmlns:xlink="http://www.w3.org/1999/xlink" width="48.000000" height="48.000000" fill="none">
	<rect id="favorite_border" width="48.000000" height="48.000000" x="0.000000" y="0.000000" fill="rgb(255,255,255)" fill-opacity="0" />
	<path id="Vector" d="M0 0L48 0L48 48L0 48L0 0Z" fill-rule="nonzero" />
	<path id="Vector" d="M33 6C29.52 6 26.18 7.62 24 10.18C21.82 7.62 18.48 6 15 6C8.84 6 4 10.84 4 17C4 24.56 10.8 30.72 21.1 40.08L24 42.7L26.9 40.06C37.2 30.72 44 24.56 44 17C44 10.84 39.16 6 33 6ZM24.2 37.1L24 37.3L23.8 37.1C14.28 28.48 8 22.78 8 17C8 13 11 10 15 10C18.08 10 21.08 11.98 22.14 14.72L25.88 14.72C26.92 11.98 29.92 10 33 10C37 10 40 13 40 17C40 22.78 33.72 28.48 24.2 37.1Z" fill="rgb(242,78,30)" fill-rule="nonzero" />
</svg>
